<?xml version="1.0" encoding="UTF-8" standalone="no"?>
<!-- Created with Inkscape (http://www.inkscape.org/) -->

<svg
   xmlns:dc="http://purl.org/dc/elements/1.1/"
   xmlns:cc="http://creativecommons.org/ns#"
   xmlns:rdf="http://www.w3.org/1999/02/22-rdf-syntax-ns#"
   xmlns:svg="http://www.w3.org/2000/svg"
   xmlns="http://www.w3.org/2000/svg"
   xmlns:sodipodi="http://sodipodi.sourceforge.net/DTD/sodipodi-0.dtd"
   xmlns:inkscape="http://www.inkscape.org/namespaces/inkscape"
   width="400"
   height="400"
   id="svg2"
   version="1.1"
   inkscape:version="0.48.4 r9939"
   sodipodi:docname="sayuri_logo.svg"
   enable-background="new">
  <defs
     id="defs4">
    <linearGradient
       id="linearGradient5010">
      <stop
         style="stop-color:#ffffff;stop-opacity:1;"
         offset="0"
         id="stop5012" />
      <stop
         style="stop-color:#82e682;stop-opacity:1;"
         offset="1"
         id="stop5014" />
    </linearGradient>
    <filter
       inkscape:collect="always"
       id="filter3824">
      <feGaussianBlur
         inkscape:collect="always"
         stdDeviation="2.5360625"
         id="feGaussianBlur3826" />
    </filter>
  </defs>
  <sodipodi:namedview
     id="base"
     pagecolor="#ffffff"
     bordercolor="#666666"
     borderopacity="1.0"
     inkscape:pageopacity="0.0"
     inkscape:pageshadow="2"
     inkscape:zoom="1.295"
     inkscape:cx="200"
     inkscape:cy="200"
     inkscape:document-units="px"
     inkscape:current-layer="layer9"
     showgrid="false"
     inkscape:snap-page="true"
     inkscape:window-width="1366"
     inkscape:window-height="714"
     inkscape:window-x="0"
     inkscape:window-y="27"
     inkscape:window-maximized="1"
     inkscape:snap-nodes="true"
     inkscape:snap-global="true"
     inkscape:snap-object-midpoints="true"
     units="px"
     width="400px" />
  <metadata
     id="metadata7">
    <rdf:RDF>
      <cc:Work
         rdf:about="">
        <dc:format>image/svg+xml</dc:format>
        <dc:type
           rdf:resource="http://purl.org/dc/dcmitype/StillImage" />
        <dc:title />
      </cc:Work>
    </rdf:RDF>
  </metadata>
  <g
     inkscape:groupmode="layer"
     id="layer9"
     inkscape:label="背景"
     sodipodi:insensitive="true">
    <rect
       style="color:#000000;fill:#ff9955;fill-opacity:1;stroke:none;stroke-width:2;marker:none;visibility:visible;display:inline;overflow:visible;enable-background:accumulate"
       id="rect4867"
       width="400"
       height="400"
       x="0"
       y="0" />
    <rect
       style="color:#000000;fill:#ffe6d5;fill-opacity:1;stroke:none;stroke-width:8;marker:none;visibility:visible;display:inline;overflow:visible;enable-background:accumulate"
       id="rect4474"
       width="100"
       height="100"
       x="0"
       y="0" />
    <rect
       style="color:#000000;fill:#ffe6d5;fill-opacity:1;stroke:none;stroke-width:8;marker:none;visibility:visible;display:inline;overflow:visible;enable-background:accumulate"
       id="rect4474-9"
       width="100"
       height="100"
       x="200"
       y="0" />
    <rect
       style="color:#000000;fill:#ffe6d5;fill-opacity:1;stroke:none;stroke-width:8;marker:none;visibility:visible;display:inline;overflow:visible;enable-background:accumulate"
       id="rect4474-0"
       width="100"
       height="100"
       x="100"
       y="100" />
    <rect
       style="color:#000000;fill:#ffe6d5;fill-opacity:1;stroke:none;stroke-width:8;marker:none;visibility:visible;display:inline;overflow:visible;enable-background:accumulate"
       id="rect4474-9-8"
       width="100"
       height="100"
       x="300"
       y="100" />
    <rect
       style="color:#000000;fill:#ffe6d5;fill-opacity:1;stroke:none;stroke-width:8;marker:none;visibility:visible;display:inline;overflow:visible;enable-background:accumulate"
       id="rect4474-5"
       width="100"
       height="100"
       x="0"
       y="200" />
    <rect
       style="color:#000000;fill:#ffe6d5;fill-opacity:1;stroke:none;stroke-width:8;marker:none;visibility:visible;display:inline;overflow:visible;enable-background:accumulate"
       id="rect4474-9-80"
       width="100"
       height="100"
       x="200"
       y="200" />
    <rect
       style="color:#000000;fill:#ffe6d5;fill-opacity:1;stroke:none;stroke-width:8;marker:none;visibility:visible;display:inline;overflow:visible;enable-background:accumulate"
       id="rect4474-0-8"
       width="100"
       height="100"
       x="100"
       y="300" />
    <rect
       style="color:#000000;fill:#ffe6d5;fill-opacity:1;stroke:none;stroke-width:8;marker:none;visibility:visible;display:inline;overflow:visible;enable-background:accumulate"
       id="rect4474-9-8-2"
       width="100"
       height="100"
       x="300"
       y="300" />
  </g>
  <g
     inkscape:groupmode="layer"
     id="layer7"
     inkscape:label="女性"
     style="display:inline"
     transform="translate(0,-652.36212)"
     sodipodi:insensitive="true">
    <g
       id="g4534"
       transform="matrix(0.70705737,0,0,0.70705737,-4.147017,541.09982)">
      <path
         sodipodi:nodetypes="ccccccccccccccccccccc"
         inkscape:connector-curvature="0"
         id="path4101"
         d="m 260.22273,372.6783 -1.54922,-41.98115 14.00545,-25.65626 23.81482,2.11872 28.5857,-8.38777 43.59199,22.99884 17.74557,34.50617 31.67974,-0.83623 4.22689,9.23985 -9.2909,25.32266 8.76277,11.69221 c 1.43655,18.49556 4.0526,27.60507 10.69664,41.07272 2.87309,6.46447 7.90011,12.32243 13.28717,18.7869 -1.43655,16.87945 -15.71837,29.88315 -31.52041,42.99166 -11.13325,10.59455 -32.17616,22.21894 -49.59432,30.83823 -7.90102,-18.85471 -9.52152,-31.36017 -13.11289,-55.2428 -11.13325,-20.65039 -18.16014,-29.78106 -36.65571,-33.19286 -6.10533,-2.15482 -17.73501,-2.27806 -24.37906,1.31332 -6.64404,-6.10534 -11.72738,-12.04515 -14.78005,-21.92143 -2.33439,-11.31282 -3.50423,-27.13419 -3.50423,-27.13419 -3.4118,-10.59455 -8.05944,-17.90929 -12.00995,-26.52859 z"
         style="color:#000000;fill:#ffffff;fill-opacity:1;stroke:none;stroke-width:2;marker:none;visibility:visible;display:inline;overflow:visible;enable-background:accumulate" />
      <path
         sodipodi:nodetypes="cccccccccc"
         inkscape:connector-curvature="0"
         id="path4121"
         d="m 363.80606,533.04969 c 19.57298,-8.43973 55.12757,-30.70624 63.20816,-41.12122 9.158,-7.00318 14.36549,-15.44291 18.8547,-29.98797 -11.13325,-10.95369 -15.26332,-19.93212 -17.59771,-28.37184 4.48921,-1.97526 18.49556,-3.05267 25.67831,-1.43655 3.05266,12.74937 7.72145,22.44607 15.80204,35.91372 4.48921,5.92577 9.87628,11.67197 14.36549,13.46765 -6.2849,15.44291 -17.05902,34.11804 -33.04063,48.30397 -15.62247,14.00635 -40.22338,26.93529 -72.00703,38.60725 -4.30965,-10.05584 -13.46765,-26.21701 -15.26333,-35.37501 z"
         style="color:#000000;fill:#ff8080;fill-opacity:1;stroke:none;stroke-width:2;marker:none;visibility:visible;display:inline;overflow:visible;enable-background:accumulate" />
      <path
         sodipodi:nodetypes="ccccc"
         inkscape:connector-curvature="0"
         id="path4141"
         d="m 246.36816,635.4038 c -24.78047,-22.62565 -43.81474,-53.51145 -50.27921,-78.29193 0,0 7.90102,-16.52031 15.80204,-20.47082 2.87309,25.49875 16.16117,67.87695 35.91372,88.34777 z"
         style="color:#000000;fill:#ff8080;fill-opacity:1;stroke:none;stroke-width:2;marker:none;visibility:visible;display:inline;overflow:visible;enable-background:accumulate" />
      <path
         sodipodi:nodetypes="ccccccccccccccccccc"
         inkscape:connector-curvature="0"
         id="path4161"
         d="m 212.60924,519.7616 c 16.87946,-11.85153 29.44926,-22.62564 36.27287,-34.11804 15.08376,-22.98478 34.39832,-39.04259 55.6663,-40.22338 11.13325,-1.43655 24.42134,5.02792 32.32236,12.21067 10.41498,8.26016 14.00635,17.95686 16.87945,31.96322 3.25933,25.37241 10.73433,54.45892 25.49874,76.85537 31.96322,-10.41498 51.59218,-22.91066 74.34142,-38.42768 13.64722,-14.36549 22.26651,-24.78047 31.24494,-46.32871 -11.85153,-6.10533 -16.87945,-12.92894 -16.87945,-18.316 6.82361,-3.95051 19.03427,-2.51396 22.98478,-2.87309 3.23224,15.08376 12.92895,33.39976 25.85789,47.40611 16.52032,3.95051 32.32235,22.62565 36.27286,32.68149 6.10534,79.01019 -4.30964,144.73232 -24.78046,215.48236 C 508.17925,829.69706 472.26551,902.96106 424.14112,972.99283 369.19311,955.3951 319.27303,926.66413 285.87325,902.24279 234.15748,859.8646 210.81356,809.94451 197.5255,769.72113 c -8.26016,-19.75255 -4.30964,-44.53302 5.02793,-48.84266 16.52029,-23.34393 32.68146,-50.9975 44.89213,-94.45311 -30.52667,-35.91373 -36.99114,-79.72847 -34.83632,-106.66376 z"
         style="color:#000000;fill:#d42aff;fill-opacity:1;stroke:none;stroke-width:2;marker:none;visibility:visible;display:inline;overflow:visible;enable-background:accumulate" />
      <path
         sodipodi:nodetypes="ccccccccccccc"
         inkscape:connector-curvature="0"
         id="path4183"
         d="m 359.31685,263.33759 c -1.97526,-8.79887 -3.23224,-19.39342 2.51396,-27.65358 0.17957,-10.95368 7.00317,-23.34392 7.00317,-23.34392 l 25.85789,-10.77412 26.57616,3.59138 17.95686,16.52031 5.02792,19.75255 -4.66878,25.49875 -12.21067,13.28808 -24.0622,12.21067 -24.78047,-2.15483 -11.49239,-9.33757 z"
         style="color:#000000;fill:#ff0000;fill-opacity:1;stroke:none;stroke-width:2;marker:none;visibility:visible;display:inline;overflow:visible;enable-background:accumulate" />
      <path
         sodipodi:nodetypes="ccccccccc"
         inkscape:connector-curvature="0"
         id="path4203"
         d="m 272.48663,276.54981 c -3.55528,-6.34871 -5.07897,-11.17373 -5.58687,-16.76059 7.11056,-23.1093 16.50665,-34.28304 37.33043,-45.45677 27.42643,-10.15794 50.28178,9.14214 57.90023,13.96716 0,0 -1.77763,5.84082 -0.25394,8.8882 -4.31712,4.57107 -4.82502,14.729 -2.28554,25.90273 l -36.56857,-7.11055 -31.99751,3.80923 z"
         style="color:#000000;fill:#ffd42a;fill-opacity:1;stroke:none;stroke-width:2;marker:none;visibility:visible;display:inline;overflow:visible;enable-background:accumulate" />
      <g
         style="fill:#fe7e00;fill-opacity:1"
         id="g4273"
         transform="translate(0,2.6171874e-6)">
        <path
           sodipodi:type="arc"
           style="color:#000000;fill:#ff6600;fill-opacity:1;stroke:none;stroke-width:2;marker:none;visibility:visible;display:inline;overflow:visible;enable-background:accumulate"
           id="path4231"
           sodipodi:cx="314.19766"
           sodipodi:cy="234.33089"
           sodipodi:rx="8.9516811"
           sodipodi:ry="8.9516811"
           d="m 323.14934,234.33089 a 8.9516811,8.9516811 0 1 1 -17.90336,0 8.9516811,8.9516811 0 1 1 17.90336,0 z"
           transform="translate(28.69617,-3.6822531)" />
        <path
           sodipodi:type="arc"
           style="color:#000000;fill:#ff6600;fill-opacity:1;stroke:none;stroke-width:2;marker:none;visibility:visible;display:inline;overflow:visible;enable-background:accumulate"
           id="path4233"
           sodipodi:cx="315.9118"
           sodipodi:cy="236.17201"
           sodipodi:rx="7.8724003"
           sodipodi:ry="7.8724003"
           d="m 323.7842,236.17201 a 7.8724003,7.8724003 0 1 1 -15.7448,0 7.8724003,7.8724003 0 1 1 15.7448,0 z"
           transform="translate(9.1421497,3.0473869)" />
        <path
           sodipodi:type="arc"
           style="color:#000000;fill:#ff6600;fill-opacity:1;stroke:none;stroke-width:2;marker:none;visibility:visible;display:inline;overflow:visible;enable-background:accumulate"
           id="path4237"
           sodipodi:cx="342.95731"
           sodipodi:cy="249.25035"
           sodipodi:rx="5.078968"
           sodipodi:ry="5.078968"
           d="m 348.03627,249.25035 a 5.078968,5.078968 0 1 1 -10.15793,0 5.078968,5.078968 0 1 1 10.15793,0 z"
           transform="translate(-1.2697403,6.9134521e-6)" />
        <path
           sodipodi:type="arc"
           style="color:#000000;fill:#ff6600;fill-opacity:1;stroke:none;stroke-width:2;marker:none;visibility:visible;display:inline;overflow:visible;enable-background:accumulate"
           id="path4239"
           sodipodi:cx="298.45285"
           sodipodi:cy="248.0441"
           sodipodi:rx="6.0312748"
           sodipodi:ry="6.0312748"
           d="m 304.48413,248.0441 a 6.0312748,6.0312748 0 1 1 -12.06255,0 6.0312748,6.0312748 0 1 1 12.06255,0 z"
           transform="translate(1.0157997,1.1427669)" />
        <path
           sodipodi:type="arc"
           style="color:#000000;fill:#ff6600;fill-opacity:1;stroke:none;stroke-width:2;marker:none;visibility:visible;display:inline;overflow:visible;enable-background:accumulate"
           id="path4241"
           sodipodi:cx="281.0574"
           sodipodi:cy="235.7276"
           sodipodi:rx="7.6819391"
           sodipodi:ry="7.6819391"
           d="m 288.73934,235.7276 a 7.6819391,7.6819391 0 1 1 -15.36388,0 7.6819391,7.6819391 0 1 1 15.36388,0 z"
           transform="matrix(0.91735537,0,0,0.91735537,25.38645,32.179047)" />
      </g>
      <path
         transform="matrix(0.84530391,0,0,0.84530391,46.48659,45.530433)"
         d="m 223.34763,316.48318 a 11.491165,11.491165 0 1 1 -22.98233,0 11.491165,11.491165 0 1 1 22.98233,0 z"
         sodipodi:ry="11.491165"
         sodipodi:rx="11.491165"
         sodipodi:cy="316.48318"
         sodipodi:cx="211.85646"
         id="path4315"
         style="color:#000000;fill:#ffffff;fill-opacity:1;stroke:none;stroke-width:2;marker:none;visibility:visible;display:inline;overflow:visible;enable-background:accumulate"
         sodipodi:type="arc" />
      <path
         transform="matrix(1.1343284,0,0,1.1343284,-36.70502,-51.015187)"
         d="m 256.23394,337.24347 a 8.5072718,8.5072718 0 1 1 -17.01454,0 8.5072718,8.5072718 0 1 1 17.01454,0 z"
         sodipodi:ry="8.5072718"
         sodipodi:rx="8.5072718"
         sodipodi:cy="337.24347"
         sodipodi:cx="247.72667"
         id="path4317"
         style="color:#000000;fill:#ffffff;fill-opacity:1;stroke:none;stroke-width:2;marker:none;visibility:visible;display:inline;overflow:visible;enable-background:accumulate"
         sodipodi:type="arc" />
      <path
         transform="translate(3.93619,-0.38091738)"
         d="m 220.68117,317.18155 a 12.316498,12.316498 0 1 1 -24.633,0 12.316498,12.316498 0 1 1 24.633,0 z"
         sodipodi:ry="12.316498"
         sodipodi:rx="12.316498"
         sodipodi:cy="317.18155"
         sodipodi:cx="208.36467"
         id="path4340"
         style="color:#000000;fill:#ff0000;fill-opacity:1;stroke:none;stroke-width:2;marker:none;visibility:visible;display:inline;overflow:visible;enable-background:accumulate"
         sodipodi:type="arc" />
      <path
         transform="translate(-1.90463,-2.9204074)"
         d="m 246.5839,342.44943 a 12.443472,12.443472 0 1 1 -24.88695,0 12.443472,12.443472 0 1 1 24.88695,0 z"
         sodipodi:ry="12.443472"
         sodipodi:rx="12.443472"
         sodipodi:cy="342.44943"
         sodipodi:cx="234.14043"
         id="path4342"
         style="color:#000000;fill:#ff0000;fill-opacity:1;stroke:none;stroke-width:2;marker:none;visibility:visible;display:inline;overflow:visible;enable-background:accumulate"
         sodipodi:type="arc" />
      <path
         sodipodi:nodetypes="ccccc"
         inkscape:connector-curvature="0"
         id="path4365"
         d="m 447.96498,243.40954 -0.63487,-5.20594 23.23628,-2.66646 0,4.82502 z"
         style="color:#000000;fill:#d45500;fill-opacity:1;stroke:none;stroke-width:2;marker:none;visibility:visible;display:inline;overflow:visible;enable-background:accumulate" />
      <path
         transform="matrix(0.95260664,0,0,0.95260664,23.27539,7.0774626)"
         d="m 496.46914,240.42564 a 13.395779,13.395779 0 1 1 -26.79155,0 13.395779,13.395779 0 1 1 26.79155,0 z"
         sodipodi:ry="13.395779"
         sodipodi:rx="13.395779"
         sodipodi:cy="240.42564"
         sodipodi:cx="483.07336"
         id="path4385"
         style="color:#000000;fill:#d42aff;fill-opacity:1;stroke:none;stroke-width:2;marker:none;visibility:visible;display:inline;overflow:visible;enable-background:accumulate"
         sodipodi:type="arc" />
      <path
         transform="translate(-0.88882,-1.3967074)"
         d="m 507.26194,235.21971 a 7.554965,7.554965 0 1 1 -15.10993,0 7.554965,7.554965 0 1 1 15.10993,0 z"
         sodipodi:ry="7.554965"
         sodipodi:rx="7.554965"
         sodipodi:cy="235.21971"
         sodipodi:cx="499.70697"
         id="path4405"
         style="color:#000000;fill:#ff8080;fill-opacity:1;stroke:none;stroke-width:2;marker:none;visibility:visible;display:inline;overflow:visible;enable-background:accumulate"
         sodipodi:type="arc" />
      <path
         sodipodi:nodetypes="cscsssccc"
         inkscape:connector-curvature="0"
         id="path4097"
         d="m 308.08174,435.24826 c 0.85708,-0.79359 4.27483,-2.33746 6.6123,-2.3081 3.5692,0.0448 6.34184,0.7925 10.62722,3.7129 -2.38076,3.61877 -5.24983,6.13261 -8.74175,7.95907 -1.30593,0.68307 -2.84632,1.16286 -4.30965,0.98762 -1.72761,-0.20689 -3.94649,-0.75144 -4.66878,-2.33439 -0.5002,-1.09623 0.89784,-3.50159 0.89784,-3.50159 0,0 -2.91257,-1.54315 -3.50159,-3.06262 -0.42552,-2.37623 1.49737,-2.49055 3.08441,-1.45289 z"
         style="color:#000000;fill:#ff0000;fill-opacity:1;stroke:none;stroke-width:2;marker:none;visibility:visible;display:inline;overflow:visible;enable-background:accumulate" />
      <path
         sodipodi:nodetypes="sscssccccscssscscccscssscscsscsccccssscssccccccssssccscssscsscssscsscsccsccccccsccsccscsscscscsccscsssscccscssccsccssscscsssccsssccscccccccssssssssscssccsccsccccccccccsssscsccccscscsccsscccscssscccccccccccccccccccccccsssssscscscsscccccscssssssscccsccccccssssssssssssssssssssscsssccssscsscssscccscscscsccccccccccscccssscccscccccccccsssccccccccsccccccsssssccccccccsccccsssccccccccsscccccsssscccccccscsscsscscsccccccccccccccsccccccccccscscccssccscsssscccscccscscscsssssscscssscscssscsscsccscccscsssscsccssscccscccccsccsscccccccccc"
         inkscape:connector-curvature="0"
         id="path3072"
         d="m 401.875,175.625 c -19.7505,-0.0886 -32.96604,3.39005 -47.5625,11.0625 -10.24012,5.38259 -17.81427,12.36678 -22.65625,24.25 -6.54922,-1.24793 -13.99876,-1.52517 -22.3125,-0.0312 -21.51559,3.86619 -39.23814,29.02541 -44,48.625 -0.55162,2.27047 1.51692,8.47664 4.96875,15.71875 -1.69192,3.63302 -2.99376,7.81261 -3.6875,12.65625 -3.30974,4.11441 -7.56547,9.86776 -11.5,16.90625 l -19.15625,4.59375 c -1.87487,-5.11459 -7.3268,-8.17227 -12.75,-6.875 -1.7091,0.40884 -3.23724,1.21723 -4.5,2.28125 -2.8956,-1.68553 -6.40025,-2.33867 -9.90625,-1.5 -7.23497,1.73066 -11.73066,9.04628 -10,16.28125 1.73066,7.23498 9.04627,11.69942 16.28125,9.96875 3.51283,-0.84029 6.3686,-2.99103 8.1875,-5.8125 1.59112,0.37377 3.29587,0.40764 5,0 5.42321,-1.29728 8.92379,-6.46563 8.28125,-11.875 L 253.5,307.8125 c -2.12224,4.11203 -4.06682,8.62512 -5.65625,13.46875 -3.05496,-1.06373 -6.54409,-0.78196 -9.46875,1.09375 -1.47923,0.94871 -2.65792,2.20458 -3.5,3.625 -3.28908,-0.6383 -6.80929,-0.10241 -9.84375,1.84375 -6.26191,4.01603 -8.10978,12.39435 -4.09375,18.65625 4.01603,6.26192 12.39433,8.07854 18.65625,4.0625 1.8664,-1.197 3.33702,-2.76214 4.375,-4.5625 0.0625,3.53059 0.38187,7.16225 1.03125,10.875 1.23618,7.06772 9.83894,15.70854 16.1875,20.1875 1.9306,4.29015 5.20877,10.57416 9.65625,20.5625 1.93239,4.33983 1.02632,17.94974 3.375,26.6875 2.43397,9.05506 4.73194,14.19526 14.0625,23.28125 -11.62639,4.4831 -22.31382,12.31704 -28.84375,21.34375 -13.65375,18.87441 -26.70307,32.94828 -49.84375,48.96875 -0.42333,5.00052 -0.54054,9.99006 -0.40625,14.9375 -6.58156,6.21576 -11.36956,14.71303 -16.03125,24.96875 5.6289,24.39186 25.02144,53.65919 48.875,75.75 -1.06042,3.44107 -2.17578,6.85834 -3.28125,10.28125 -9.8957,30.64025 -27.61358,60.93953 -44.71875,81.875 -9.76269,11.94881 -7.07814,32.1394 -0.90625,46.28125 41.35105,94.74905 66.75139,142.1956 231.40625,206.5 54.2916,-79.65735 78.28951,-130.81371 100.59375,-202.9375 22.65947,-73.27247 36.88326,-143.13323 31.125,-230.09375 -1.01898,-15.38843 -18.98192,-33.15353 -38.5625,-40.71875 -11.21095,-12.24442 -15.60724,-18.64657 -24.96875,-45.5625 -7.16762,0.14627 -17.39994,0.10729 -25,2.125 -5.12292,-8.7749 -9.05083,-19.17791 -12.5,-31.25 -7.55138,-0.97888 -17.82426,-0.25877 -26.21875,1.0625 -2.55837,-7.07881 -4.63828,-15.66251 -6.375,-27.21875 9.13785,-13.61749 18.13616,-21.30979 30.375,-29.40625 10.36879,-6.85935 21.3638,-15.98882 56.75,-21.8125 2.86883,-0.47214 5.13877,-3.00369 4.9375,-6.375 -0.85964,-14.399 -7.60142,-38.5348 -18.03125,-55.59375 -7.07187,-11.56671 -13.98854,-20.31007 -25.75,-27.09375 3.34451,-5.93343 4.21197,-11.54262 4.125,-16.34375 2.8617,2.1172 6.54272,3.13354 10.34375,2.5625 4.95876,-0.74497 8.94461,-4.0108 10.78125,-8.3125 1.23284,0.48571 2.5855,0.67656 3.96875,0.46875 4.3499,-0.6535 7.3391,-4.89227 6.65625,-9.4375 -0.68285,-4.54525 -4.7751,-7.716 -9.125,-7.0625 -1.38325,0.20781 -2.65224,0.76427 -3.6875,1.59375 -2.64211,-3.12561 -6.60272,-5.04382 -10.875,-4.96875 -0.61033,0.0107 -1.22391,0.0631 -1.84375,0.15625 -2.39354,0.35959 -4.54587,1.31391 -6.34375,2.6875 -0.51609,-1.7883 -2.56151,-8.4475 -6.03125,-12.59375 -18.01726,-21.53022 -38.58935,-36.023 -62.9375,-36.6875 -1.37709,-0.0376 -2.7458,-0.0566 -4.0625,-0.0625 z m 2.84375,30.4375 c 2.60318,0.0454 5.25678,0.60149 7.6875,1.125 6.51226,1.40256 11.4738,4.24693 16.90625,10.6875 1.25358,1.4862 2.1245,3.26848 2.65625,5.1875 -0.70682,0.31203 -1.29729,1.1341 -1.6875,2.59375 -0.43835,1.6397 -0.8068,3.15095 -1.15625,4.625 -1.26582,1.21898 -2.5848,2.06302 -3.9375,2.6875 0.64222,-3.5293 0.53778,-6.3108 -0.9375,-8.96875 -3.18856,-5.74469 -9.24821,-11.50099 -15.8125,-11.78125 -1.664,-0.002 -3.78065,0.51642 -5.375,2.6875 -0.3534,-0.0351 -0.69821,-0.073 -1.0625,-0.0937 -1.31643,-1.25563 -3.01236,-2.32198 -4.78125,-2.65625 -0.006,-0.52002 -0.0607,-1.14262 -0.28125,-1.59375 -0.24524,-0.50174 -0.54128,-1.01214 -0.875,-1.5 2.49519,-2.35721 5.53107,-3.05455 8.65625,-3 z M 390.25,207.21875 c 0.37858,0.003 0.7572,0.0252 1.125,0.0625 1.56568,0.15883 2.8947,1.56553 3.71875,2.90625 0.31934,0.51955 0.4544,1.31523 0.53125,1.875 -0.23093,-0.008 -0.46787,-0.035 -0.6875,-0.0312 -6.28604,0.10629 -9.65153,2.51008 -13.53125,5.59375 -3.68525,2.9291 -6.51293,7.26404 -8.125,11.625 -0.54254,-0.0713 -1.07729,-0.0957 -1.625,-0.0625 -0.9732,0.059 -1.94042,0.30786 -2.90625,0.6875 -2.90409,1.14152 -5.06086,2.61359 -6.6875,4.28125 0.85313,-6.61961 5.84747,-15.06818 9.53125,-18.125 6.16939,-5.11939 12.9775,-8.85741 18.65625,-8.8125 z m 6.09375,6.5 c 1.10692,0.009 2.47016,0.34119 3.3125,1.0625 -6.2922,0.30186 -12.35676,3.67808 -16.21875,12.21875 -1.54242,3.411 -0.70682,6.54742 1.1875,10.625 -0.53857,0.41567 -1.03496,0.89332 -1.5,1.46875 -0.13803,-0.33716 -0.26101,-0.65716 -0.40625,-1 -2.05239,-4.84481 -4.95915,-7.62772 -8.09375,-8.5625 2.26997,-5.03864 4.39198,-7.82252 7.90625,-10.5 3.91708,-2.98437 6.68054,-5.3705 13.8125,-5.3125 z m 10.9375,0.3125 c 0.3315,-0.009 0.67566,0.0215 1,0.0625 6.03314,0.76242 11.71812,5.59385 14.5625,10.96875 1.36708,2.58332 1.07666,5.06528 0.53125,8.625 -1.84838,0.59974 -3.71714,0.87649 -5.53125,1.15625 0.8992,-3.87619 1.56752,-7.20858 -0.0312,-10.25 -2.64732,-5.03612 -6.89826,-8.35298 -12.875,-9.4375 0.64161,-0.83694 1.48548,-1.10199 2.34375,-1.125 z m -84.8125,0.21875 c 19.94813,0.19584 33.70127,11.73755 39.03125,16 -0.36332,1.72622 -0.61849,3.51426 -0.71875,5.40625 -3.42658,4.57851 -3.62696,10.25288 -3.875,14.90625 -0.15158,2.84378 0.19229,5.75204 0.875,8.625 -3.49519,-1.47498 -8.08481,-3.186 -13.71875,-4.625 2.08346,-0.87815 3.5625,-2.91946 3.5625,-5.3125 0,-3.19071 -2.62179,-5.8125 -5.8125,-5.8125 -3.19072,0 -5.8125,2.62179 -5.8125,5.8125 0,1.49979 0.58591,2.87838 1.53125,3.90625 -5.73414,-1.05411 -12.27618,-1.74694 -19.65625,-1.65625 -3.77071,0.0463 -7.84444,0.29855 -12.1875,0.75 0.43803,-0.90844 0.6875,-1.92664 0.6875,-3 0,-3.79897 -3.07603,-6.90625 -6.875,-6.90625 -3.79897,0 -6.90625,3.10728 -6.90625,6.90625 0,2.01821 0.88951,3.82815 2.28125,5.09375 -7.385,2.36476 -16.53808,7.28043 -22.53125,17.09375 -1.53932,-4.1784 -3.23779,-9.52514 -2.75,-11.75 5.50797,-25.1225 23.07049,-40.21408 40.65625,-44.125 4.29634,-0.95547 8.36104,-1.35037 12.21875,-1.3125 z m 78.8125,2.03125 c 0.0628,2.3e-4 0.12464,-9.8e-4 0.1875,0 7.59381,0.11865 11.83925,4.0726 14.5625,9.65625 1.33262,2.73236 1.26623,6.04983 0.65625,9.09375 -0.32033,0.0531 -0.62253,0.12841 -0.9375,0.1875 -2.79144,-5.38164 -4.97714,-8.66455 -8.875,-10.625 -0.82553,-4.71645 -2.38718,-6.76425 -5.59375,-8.3125 z m -2.4375,0.1875 c 3.2975,1.20392 5.63781,3.33778 6.40625,7.4375 -5.84205,-2.15554 -14.16389,-1.41477 -18.65625,1.375 3.30304,-5.26976 7.65717,-8.09593 12.25,-8.8125 z m -55.9375,4 c -5.53685,0 -10.03125,4.52564 -10.03125,10.0625 0,5.53685 4.4944,10.03125 10.03125,10.03125 5.53686,0 10.0625,-4.4944 10.0625,-10.03125 0,-5.53686 -4.52564,-10.0625 -10.0625,-10.0625 z m 0,2 c 4.45598,0 8.0625,3.60652 8.0625,8.0625 0,4.45597 -3.60652,8.03125 -8.0625,8.03125 -4.45597,0 -8.03125,-3.57528 -8.03125,-8.03125 0,-4.45598 3.57528,-8.0625 8.03125,-8.0625 z m 140.25,1.6875 c 3.71202,-0.0395 7.09055,1.70029 9.34375,4.46875 -1.01657,1.39404 -1.58511,3.13418 -1.59375,4.96875 -0.008,0.43127 -0.005,0.8985 0.0625,1.34375 0.065,0.43247 0.15259,0.85086 0.28125,1.25 0.54069,1.77755 1.63377,3.27058 3.03125,4.3125 -1.53172,3.78094 -4.85629,6.7243 -9.1875,7.375 -5.84473,0.87807 -11.30404,-2.60665 -13.09375,-8.03125 1.6e-4,-0.0104 1.6e-4,-0.0208 0,-0.0312 -0.006,-0.0195 0.006,-0.043 0,-0.0625 -0.0102,-0.0106 -0.0206,-0.0211 -0.0312,-0.0312 -0.0986,-0.31 -0.16912,-0.62805 -0.25,-0.9375 -0.0809,-0.30945 -0.17226,-0.62803 -0.21875,-0.9375 -0.0472,-0.3143 -0.0402,-0.62589 -0.0625,-0.9375 -0.0125,-0.31248 -0.034,-0.61167 -0.0312,-0.9375 0.001,-0.0312 0.001,-0.0625 0,-0.0937 -0.009,-0.0317 -0.0193,-0.063 -0.0312,-0.0937 0.13117,-5.69803 4.322,-10.6235 10.15625,-11.5 0.5414,-0.0813 1.09471,-0.11935 1.625,-0.125 z m -85.65625,0.375 c 2.7145,0.005 5.24379,0.56906 7.9375,1.75 3.86186,1.69306 6.08566,4.14439 8.28125,9.375 -1.6778,0.48026 -3.23534,1.22641 -4.5625,2.5625 -2.0637,2.07759 -2.87282,5.05202 -3.53125,8.03125 -0.57425,-0.0238 -1.14658,-0.0378 -1.75,-0.0312 -0.49683,0.005 -1.01448,0.005 -1.53125,0.0312 -0.031,0.002 -0.0627,-0.002 -0.0937,0 -4.33396,-2.8308 -3.79962,-10.08716 -9.625,-10.59375 -2.20719,-0.19194 -4.5428,0.0455 -6.59375,1.09375 -1.33158,-3.36941 -2.30327,-6.02306 -0.84375,-8.96875 0.13598,-0.27444 0.29668,-0.51719 0.4375,-0.78125 4.75172,-1.56624 8.46907,-2.47496 11.875,-2.46875 z m 35.4375,1.6875 c 0.11386,-0.007 0.22994,0.0174 0.34375,0.0625 5.15345,2.04295 6.6955,9.22647 6.28125,19.625 -0.36478,9.15685 -3.2671,17.93006 -10.1875,25.53125 -2.35541,2.58713 -4.74012,4.24184 -8.25,5.21875 2.39205,-3.3046 3.90628,-6.96155 3.9375,-10.59375 0.0461,-5.36632 -1.5846,-10.69267 -5.4375,-14.46875 10.16548,-9.93749 9.1577,-14.35107 11.53125,-23.28125 0.22013,-0.82821 0.98426,-2.04557 1.78125,-2.09375 z m 65.625,1.21875 c 3.06279,-0.13379 5.79497,2.16941 6.28125,5.40625 0.5187,3.45261 -1.69576,6.6286 -5,7.125 -1.30355,0.19584 -2.59535,-0.038 -3.6875,-0.625 -0.0199,-0.0217 -0.0408,-0.0426 -0.0625,-0.0625 -0.0126,-0.007 -0.0188,-0.024 -0.0312,-0.0312 -0.18823,-0.1089 -0.38625,-0.21498 -0.5625,-0.34375 -0.18795,-0.13733 -0.35881,-0.27886 -0.53125,-0.4375 -0.0208,-0.0192 -0.0731,-0.0431 -0.0937,-0.0625 -0.15135,-0.14134 -0.26869,-0.31202 -0.40625,-0.46875 -0.46503,-0.53585 -0.85168,-1.15212 -1.125,-1.84375 -0.0911,-0.23055 -0.18406,-0.44232 -0.25,-0.6875 -0.0659,-0.24519 -0.0862,-0.52276 -0.125,-0.78125 -0.0388,-0.25849 -0.0847,-0.52752 -0.0937,-0.78125 -0.009,-0.25374 -0.0188,-0.47161 0,-0.71875 0.058,-0.74141 0.27545,-1.44491 0.5625,-2.09375 0.003,-0.008 -0.003,-0.0236 0,-0.0312 0.0762,-0.16857 0.12865,-0.33974 0.21875,-0.5 0.007,-0.0124 0.0242,-0.0188 0.0312,-0.0312 0.0184,-0.0323 0.0435,-0.0619 0.0625,-0.0937 0.0228,-0.0391 0.0388,-0.0865 0.0625,-0.125 0.0987,-0.16085 0.20013,-0.28707 0.3125,-0.4375 0.13063,-0.17488 0.28957,-0.34061 0.4375,-0.5 0.01,-0.0106 0.0213,-0.0519 0.0312,-0.0625 0.0453,-0.0379 0.0871,-0.0797 0.125,-0.125 0.86006,-0.84263 1.98644,-1.43517 3.25,-1.625 0.20651,-0.031 0.38956,-0.0536 0.59375,-0.0625 z m -173.59375,3.09375 c -4.66792,0 -8.46875,3.80083 -8.46875,8.46875 0,4.66791 3.80083,8.5 8.46875,8.5 4.66791,0 8.46875,-3.83209 8.46875,-8.5 0,-4.66792 -3.80084,-8.46875 -8.46875,-8.46875 z m 45.84375,1.03125 c 3.89787,-0.28854 8.19175,3.93088 10.1875,7.3125 2.05813,3.48731 3.87445,10.40172 4.46875,12.78125 -3.34499,2.99293 -6.17975,7.7072 -8.0625,15.1875 -1.279,5.08154 -1.65335,10.31776 1.84375,14.59375 -8.18345,-1.80716 -9.28738,-4.07882 -13.46875,-9.0625 -5.14938,-6.13742 -6.93961,-15.04715 -6.65625,-22.875 0.29601,-8.17713 4.33937,-16.25315 10.90625,-17.8125 0.25552,-0.0607 0.52139,-0.10576 0.78125,-0.125 z m 57.90625,0.53125 c -1.47965,6.0369 -3.22727,11.23201 -10.09375,18.625 -2.79488,-2.32977 -6.5973,-3.8999 -11.53125,-4.34375 1.05016,-3.03982 1.85575,-5.38985 3.90625,-7.28125 4.77544,-4.40492 9.87702,-1.07022 17.71875,-7 z m -103.75,0.4375 c 3.58703,0 6.46875,2.88171 6.46875,6.46875 0,3.58703 -2.88172,6.5 -6.46875,6.5 -3.58704,0 -6.46875,-2.91297 -6.46875,-6.5 0,-3.58704 2.88171,-6.46875 6.46875,-6.46875 z m 65.5,4.59375 c 0.87971,-0.0105 1.73952,0.12682 2.59375,0.46875 3.17558,1.27108 4.37035,6.60439 7.3125,8.78125 -4.65231,0.33358 -9.51772,1.13603 -13.71875,4.3125 -0.62798,-3.43034 -1.65351,-6.77068 -3.0625,-10.375 2.13276,-1.94834 4.52511,-3.15954 6.875,-3.1875 z m 78.9375,0 c 0.0258,0.33814 0.0738,0.69064 0.125,1.03125 0.0527,0.35091 0.10988,0.69074 0.1875,1.03125 l -21.15625,3.15625 0.0625,-2.09375 z m -186.4375,3.15625 c -4.40723,0 -8,3.62401 -8,8.03125 0,4.40723 3.59277,8 8,8 4.40723,0 8,-3.59277 8,-8 0,-4.40724 -3.59277,-8.03125 -8,-8.03125 z m 0,2 c 3.32635,0 6,2.70489 6,6.03125 0,3.32635 -2.67365,6 -6,6 -3.32635,0 -6,-2.67365 -6,-6 0,-3.32636 2.67365,-6.03125 6,-6.03125 z m 16.53125,2.0625 c 2.71809,0 4.875,2.18816 4.875,4.90625 0,2.7181 -2.15691,4.90625 -4.875,4.90625 -2.71809,0 -4.90625,-2.18815 -4.90625,-4.90625 0,-2.71809 2.18816,-4.90625 4.90625,-4.90625 z m 42.3125,1.09375 c 2.10983,0 3.8125,1.70267 3.8125,3.8125 0,2.10984 -1.70267,3.78125 -3.8125,3.78125 -2.10984,0 -3.8125,-1.67141 -3.8125,-3.78125 0,-2.10983 1.70266,-3.8125 3.8125,-3.8125 z m 60.625,2.6875 c 14.03694,-0.0246 22.5328,8.03114 21.21875,18.09375 -1.34083,10.26764 -12.72865,19.12196 -24.75,20.875 -11.26558,1.64283 -22.4051,-6.34238 -21.5,-14.3125 2.32014,-20.43069 13.64864,-24.63628 25.03125,-24.65625 z M 324.5,303.46875 c 6.98268,8.39689 8.89844,8.97554 12.75,11.40625 8.1803,5.16257 25.18193,9.39338 26.75,11.25 7.16922,8.48845 9.09623,21.44963 14,30.25 1.68812,3.02952 5.06018,5.55795 8.5,6 6.14149,0.78924 11.20153,-1.38398 16.40625,-2.5625 -1.15179,1.79489 -2.36354,4.23297 -2.375,7.3125 -0.0117,3.15344 2.68692,3.40268 0.21875,9.6875 -0.84494,2.15152 -3.18885,5.27948 -4.5,6.9375 -2.00117,1.05844 -3.68163,2.32623 -4.1875,4.1875 -0.8133,2.99241 1.08278,9.31786 4.0625,10.3125 2.54596,0.84985 7.18453,0.70514 8.625,-0.75 1.90059,-1.91995 3.63601,-4.02186 5.21875,-6.1875 3.83023,2.29768 7.4373,6.13975 10.1875,11 3.37341,28.5444 7.72272,42.80367 23.96875,59.78125 -3.24251,10.44393 -7.42411,19.02444 -11.3125,22.65625 -19.15135,17.88761 -36.11356,30.52627 -67.71875,45.03125 -3.29477,-11.43295 -5.56833,-22.73551 -7.75,-38.59375 -1.01902,-7.40715 -3.39047,-14.83299 -7.1875,-21.5625 12.65364,-6.44998 22.90642,-14.52326 36.09375,-29.4375 6.66737,-7.54048 8.67678,-18.21846 8.5,-30.0625 -1.06066,12.37437 -4.99158,23.00788 -10.78125,28.8125 -12.71721,12.75004 -22.47229,21.02763 -35.5,27.96875 -18.28788,-19.44345 -35.59541,-27.62528 -57.375,-20.31245 -6.73303,-7.56399 -11.81935,-16.33009 -13.75,-24.03125 -1.96179,-7.82536 -2.51989,-18.39356 -4.59375,-25.1875 -2.52415,-8.26905 -5.31378,-14.40827 -7.3125,-18.875 1.44723,-1.14983 4.48009,-3.15056 5.6875,-3.875 4.5,-1.25 9.75,-2.875 17.75,-3 l -2.75,-5.375 c -4.75,3.375 -13.375,5.375 -19,5.625 -1.29828,0.69907 -2.58794,1.69637 -3.3125,2.90625 -0.37548,-0.93585 -0.67088,-1.76918 -0.8125,-2.40625 -2.74384,-12.34328 -3.18198,-22.32233 0,-40 6.62913,-6.45235 11.43934,-16.25476 12.5,-22 19.88738,4.24264 34.15076,0.60676 49,-6.90625 z m -99,1.3125 c 3.89402,-0.13243 7.43175,2.46302 8.375,6.40625 1.07801,4.50654 -1.68095,9.01575 -6.1875,10.09375 -1.0737,0.25684 -2.12071,0.22601 -3.15625,0.0625 0.69435,-1.77794 0.99366,-3.70983 0.875,-5.6875 -0.0168,-0.32816 -0.0512,-0.66942 -0.0937,-1 -0.0605,-0.45133 -0.11058,-0.89156 -0.21875,-1.34375 -0.0978,-0.40885 -0.24263,-0.79686 -0.375,-1.1875 -0.0144,-0.042 -0.0164,-0.0832 -0.0312,-0.125 -0.0207,-0.059 -0.0411,-0.1289 -0.0625,-0.1875 -0.0932,-0.25131 -0.20516,-0.50755 -0.3125,-0.75 -0.10515,-0.24213 -0.19429,-0.4852 -0.3125,-0.71875 -0.009,-0.0174 -0.0223,-0.014 -0.0312,-0.0312 -0.14877,-0.29072 -0.3319,-0.56703 -0.5,-0.84375 -0.17802,-0.28829 -0.33321,-0.57156 -0.53125,-0.84375 -0.5854,-0.81747 -1.25833,-1.58982 -2,-2.25 0.84557,-0.60018 1.80265,-1.11849 2.875,-1.375 0.56332,-0.13475 1.13121,-0.19983 1.6875,-0.21875 z M 211.5625,305.5 c 2.15739,-0.0791 4.25369,0.46485 6.03125,1.53125 l 0.5625,0.40625 c 0.53976,0.37096 1.03211,0.75737 1.5,1.21875 0.0364,0.0362 0.0891,0.0882 0.125,0.125 0.56713,0.57494 1.06763,1.2397 1.5,1.9375 0.16013,0.26063 0.29846,0.50502 0.4375,0.78125 0.0741,0.14573 0.15092,0.28752 0.21875,0.4375 0.0463,0.10332 0.11293,0.20723 0.15625,0.3125 0.21656,0.52338 0.36378,1.08679 0.5,1.65625 0.16443,0.68738 0.2824,1.35468 0.3125,2.03125 4.1e-4,0.008 0,0.0229 0,0.0312 0.007,0.1551 0,0.31459 0,0.46875 8.5e-4,0.26065 -0.0137,0.52362 -0.0312,0.78125 -0.11656,1.57572 -0.56715,3.07021 -1.3125,4.4375 l -0.4375,0.78125 c -1.47628,2.25486 -3.78721,3.97742 -6.625,4.65625 -5.8996,1.41123 -11.80752,-2.19414 -13.21875,-8.09375 -1.41124,-5.89961 2.22538,-11.80752 8.125,-13.21875 0.72759,-0.17404 1.43712,-0.25488 2.15625,-0.28125 z m 32.875,17.6875 c 0.89385,0.0206 1.78481,0.19995 2.625,0.5 -0.9753,3.30842 -1.7706,6.7553 -2.3125,10.34375 -0.1239,-0.30434 -0.25719,-0.60813 -0.40625,-0.90625 -0.20571,-0.40626 -0.4365,-0.79613 -0.6875,-1.1875 -0.22695,-0.35386 -0.46515,-0.67471 -0.71875,-1 -0.0274,-0.0349 -0.0659,-0.0904 -0.0937,-0.125 -0.039,-0.0489 -0.0543,-0.10799 -0.0937,-0.15625 -0.17074,-0.20661 -0.35007,-0.40015 -0.53125,-0.59375 -0.179,-0.19401 -0.37399,-0.38088 -0.5625,-0.5625 -0.0142,-0.0135 -0.0171,-0.0179 -0.0312,-0.0312 -0.23618,-0.22554 -0.46892,-0.41905 -0.71875,-0.625 -0.263,-0.21361 -0.53589,-0.43318 -0.8125,-0.625 -0.82189,-0.57918 -1.70734,-1.08954 -2.625,-1.46875 0.60085,-0.8451 1.32187,-1.65476 2.25,-2.25 1.46267,-0.93807 3.10982,-1.34965 4.71875,-1.3125 z m -11.96875,5.0625 c 0.69375,0.0106 1.38599,0.0782 2.0625,0.21875 l 0.65625,0.1875 c 0.6318,0.17259 1.25005,0.37462 1.84375,0.65625 0.0463,0.0222 0.11018,0.0709 0.15625,0.0937 0.72479,0.35618 1.39325,0.79594 2.03125,1.3125 0.237,0.19338 0.46527,0.37869 0.6875,0.59375 0.11795,0.11321 0.23032,0.22446 0.34375,0.34375 0.0777,0.0823 0.17444,0.16486 0.25,0.25 0.37679,0.42291 0.71515,0.91338 1.03125,1.40625 0.38156,0.59493 0.71759,1.18355 0.96875,1.8125 0.003,0.007 -0.003,0.0233 0,0.0312 0.0577,0.14415 0.1055,0.29193 0.15625,0.4375 0.0866,0.24584 0.15055,0.50094 0.21875,0.75 0.40868,1.52625 0.47242,3.08855 0.21875,4.625 l -0.15625,0.90625 c -0.65165,2.61517 -2.26263,4.98728 -4.71875,6.5625 -5.10613,3.27479 -11.85021,1.79365 -15.125,-3.3125 -3.2748,-5.10614 -1.79366,-11.85021 3.3125,-15.125 1.88918,-1.21163 3.98124,-1.78173 6.0625,-1.75 z m 98.90625,28.5 c -9.125,3.375 -17.125,4.5 -26.625,5 l 4.375,5.375 c 8.875,-3.75 14.75,-5.625 22.125,-6 4.375,-0.125 7.25,-0.5 15.25,0.5 -6.25,-4.375 -11,-4.625 -15.125,-4.875 z M 408,359.09375 c 0.47693,-0.01 0.95154,0.002 1.4375,0.0312 3.01648,0.17844 5.36168,0.66533 7.8125,1.875 1.26206,4.718 1.18585,7.20991 0.375,10.75 -1.1644,5.08364 -7.36737,15.56538 -12.75,22.25 -1.57337,1.95395 -5.78255,2.11238 -7.375,1.5 -1.91315,-0.7357 -3.28653,-3.89455 -2.71875,-6.21875 0.83488,-3.41757 6.04121,-4.60375 8.15625,-6.34375 2.60009,-2.13905 4.36796,-4.28823 6.3125,-9.8125 -1.81196,3.49134 -3.77816,5.66663 -5.40625,6.875 -0.94243,0.69947 -2.21307,1.30191 -3.59375,1.90625 0.86488,-1.44072 2.09336,-3.55337 2.75,-5.1875 2.45863,-6.11861 0.024,-7.74231 0.0937,-9.65625 0.10189,-2.79153 0.14604,-5.0761 1.65625,-7.65625 1.06784,-0.17968 2.14865,-0.28993 3.25,-0.3125 z M 332,378.25 c -5.91196,2.14704 -10.02366,5.01381 -14.9375,9.0625 L 318.875,389 c 4.0625,-2.9375 6.3125,-4.75 11.6875,-7.4375 0.52771,0 1.02971,0.0192 1.53125,0.0312 -0.35886,3.85313 0.51057,5.61584 2.71875,7.40625 4.15175,-0.0197 6.96681,-1.40331 10.1875,-3.625 l 0.3125,-1.34375 c 0.0758,-0.1848 0.37541,0.14443 0.5625,0.21875 l 2.1875,-0.5 c -2.75,-2.1875 -8.5,-5.5 -16.0625,-5.5 z m -47.46875,9.71875 c -0.49414,0.008 -0.97656,0.0469 -1.46875,0.0937 -3.125,1.6875 -5.5,3.5625 -7.0625,6.9375 l 2,0.5 c 2.3125,-2.375 3.6875,-3.8125 6.375,-5 0.20527,0.009 0.41763,0.0176 0.625,0.0312 -0.0586,3.09935 0.38258,4.2886 2.4375,6.28125 1.9375,-0.6875 4.625,-2.1875 6,-3.5625 l -0.0312,-0.5 c 0.21884,0.10266 0.43262,0.20069 0.65625,0.3125 l 1,-2.4375 c -3.55469,-1.80469 -7.07227,-2.71179 -10.53125,-2.65625 z M 296.625,406.75 c -3,2.8125 -5.4375,4.4375 -6.0625,6.5 1,6 5.5625,9.5 12.9375,9.75 -7.5,-1.4375 -9.5625,-6.3125 -10.3125,-9.4375 0.9375,-2.4375 1.25,-4 3.4375,-6.8125 z m 8.96875,8.65625 c -0.94969,0.0857 -1.75552,0.42201 -1.875,1.0625 -0.14978,0.80291 1.07761,1.47536 1.90625,1.90625 -0.56348,-0.51928 -0.99086,-1.135 -0.8125,-1.5 0.38085,-0.77943 1.37106,-0.761 2.6875,-0.625 1.13014,0.11675 1.91307,0.55519 4.34375,1.59375 -1.85616,-1.35897 -2.84472,-2.04924 -4.46875,-2.34375 -0.57934,-0.10506 -1.21144,-0.14515 -1.78125,-0.0937 z M 443.8125,434.1875 c 0.50767,-0.009 1.01436,-0.01 1.5,0 1.4513,0.0286 2.81594,0.1503 4.125,0.34375 -0.5724,8.00588 -2.12767,16.28841 -4.21875,23.84375 -6.01658,-7.59951 -10.67313,-14.06313 -14.375,-22.59375 5.29147,-1.00152 9.41507,-1.52872 12.96875,-1.59375 z m 9.125,3.625 c 4.57202,11.07297 9.33466,20.93899 14.84375,31.40625 5.25764,5.67271 8.13008,8.63673 14.09375,12.25 -11.35238,22.09548 -21.97662,38.18221 -33.96875,46.375 -21.39879,14.61925 -43.64703,26.64961 -68.625,35.65625 -3.96924,-7.49263 -8.48064,-15.93575 -11.03125,-23.5625 -0.32553,-0.9734 -0.62911,-1.91927 -0.9375,-2.875 25.22653,-12.78545 49.48787,-30.36516 69.375,-51.40625 7.11298,-7.52571 12.64304,-24.31643 16.25,-47.84375 z m -149,9.4375 c 2.83762,-0.0579 5.67867,0.19239 8.46875,0.78125 26.48157,5.58904 37.06649,27.09775 40.03125,47.625 2.59857,17.99185 7.06416,30.36718 12.25,45.15625 4.80356,13.69886 14.8766,29.91005 16.90625,39.15625 2.00256,9.12277 4.36435,35.31819 -2,56.75 -2.03789,6.86254 -6.64174,28.26641 0,30.9375 7.03101,2.82764 15.85866,-11.75563 19.375,-18.46875 4.28733,-8.18503 3.53381,-18.23977 1.53125,-26.25 0.89003,8.23274 0.19557,17.37135 -4.65625,24.90625 -2.40923,3.74155 -7.0539,10.92217 -11.125,9.125 -7.08912,-3.12946 -4.1658,-11.02843 -2,-18.46875 6.1925,-21.27354 6.48287,-42.36934 4.6875,-55.15625 1.86327,-1.03307 4.50875,-1.8439 5.53125,-0.6875 12.6252,14.27844 17.36237,28.23807 21.8125,51.15625 -0.89104,-16.63266 -3.87769,-30.0302 -9.59375,-40.90625 1.58358,-1.8388 3.41437,-3.09592 5.59375,-3.59375 8.59504,-1.96333 17.7438,7.25792 26.03125,4.25 8.36422,-3.03579 18.48122,-13.576 19.59375,-22.03125 -2.22506,7.34272 -13.51013,15.81626 -20.9375,18.25 -8.03427,2.63261 -15.93048,-5.2865 -24.25,-3.78125 -2.82262,0.51069 -5.58052,2.16233 -7.625,4 -2.53749,-4.24989 -5.53507,-8.08781 -9.0625,-11.5625 -1.95996,-1.93066 -5.16309,-1.58038 -8.09375,0.0625 -0.88192,-2.75881 -2.64016,-6.36097 -4.71875,-10.375 21.96329,-5.58799 48.12737,-20.55744 70.25,-36.09375 10.71727,-7.52655 28.12488,-31.85167 40.75,-62.65625 3.95208,14.49363 11.95252,28.42775 21.3125,40.96875 14.1017,7.48558 32.50686,19.89622 34.5625,37.40625 4.78207,79.7909 -3.90939,147.59134 -24.34375,215.34375 -21.83831,72.40738 -63.19882,155.74988 -103.25,202.03125 C 276.56198,909.72086 233.50725,857.04843 199.375,763.09375 c -3.96124,-10.90397 -1.7206,-24.77733 4.65625,-34.46875 15.0657,-22.89656 34.75457,-49.63413 42.71875,-79 6.3339,-23.35461 11.58058,-48.17442 6.46875,-74.3125 -3.82307,-19.54838 -13.57497,-0.89547 -14.6875,15.125 2.22507,-7.56522 9.20953,-23.79911 10.46875,-14.03125 2.08763,16.19373 0.14785,30.44689 -3.25,44 -20.52577,-25.54293 -28.91213,-60.38782 -31.25,-97.15625 22.69567,-14.90794 42.81029,-44.50262 48.28125,-52.0625 10.32569,-14.26823 25.8331,-23.62498 41.15625,-23.9375 z m 181.65625,16.15625 c 1.5485,0.004 3.20445,0.13908 4.96875,0.40625 -2.60307,5.49274 -5.15177,10.69001 -7.65625,15.625 -4.49485,-3.42499 -7.0372,-5.96874 -11.875,-12.9375 4.59728,-1.57507 8.9847,-3.10701 14.5625,-3.09375 z m -276,77.03125 c 2.63789,31.97999 16.19809,62.05121 34.78125,85.125 -0.4264,1.53012 -0.86061,3.04295 -1.3125,4.5625 -22.20673,-24.45337 -37.73566,-52.47867 -43.28125,-72.8125 2.62598,-6.72907 5.70242,-12.32581 9.8125,-16.875 z"
         style="color:#000000;fill:#000000;fill-opacity:1;stroke:none;stroke-width:3;marker:none;visibility:visible;display:inline;overflow:visible;enable-background:accumulate" />
    </g>
  </g>
  <g
     inkscape:groupmode="layer"
     id="layer8"
     inkscape:label="文字"
     transform="translate(0,-652.36212)"
     style="display:inline"
     sodipodi:insensitive="true">
    <text
       xml:space="preserve"
       style="font-size:120px;font-style:normal;font-variant:normal;font-weight:normal;font-stretch:normal;text-align:start;line-height:125%;letter-spacing:0px;word-spacing:0px;writing-mode:lr-tb;text-anchor:start;fill:#000000;fill-opacity:1;stroke:#000000;stroke-width:8;stroke-miterlimit:4;stroke-opacity:1;stroke-dasharray:none;display:inline;filter:url(#filter3824);font-family:URW Bookman L;-inkscape-font-specification:URW Bookman L"
       x="11.573584"
       y="1019.6984"
       id="text4574-0-5-2"
       sodipodi:linespacing="125%"><tspan
         sodipodi:role="line"
         id="tspan4576-1-7-6"
         x="11.573584"
         y="1019.6984">Sayuri</tspan></text>
    <text
       xml:space="preserve"
       style="font-size:120px;font-style:normal;font-variant:normal;font-weight:normal;font-stretch:normal;text-align:start;line-height:125%;letter-spacing:0px;word-spacing:0px;writing-mode:lr-tb;text-anchor:start;fill:none;stroke:#ffffff;stroke-width:8;stroke-miterlimit:4;stroke-opacity:1;stroke-dasharray:none;font-family:URW Bookman L;-inkscape-font-specification:URW Bookman L"
       x="7.5735841"
       y="1015.6984"
       id="text4574-0-5"
       sodipodi:linespacing="125%"><tspan
         sodipodi:role="line"
         id="tspan4576-1-7"
         x="7.5735841"
         y="1015.6984">Sayuri</tspan></text>
    <text
       xml:space="preserve"
       style="font-size:120px;font-style:normal;font-variant:normal;font-weight:normal;font-stretch:normal;text-align:start;line-height:125%;letter-spacing:0px;word-spacing:0px;writing-mode:lr-tb;text-anchor:start;fill:#ff0000;fill-opacity:1;stroke:none;font-family:URW Bookman L;-inkscape-font-specification:URW Bookman L"
       x="7.5735836"
       y="1015.6984"
       id="text4574-0"
       sodipodi:linespacing="125%"><tspan
         sodipodi:role="line"
         id="tspan4576-1"
         x="7.5735836"
         y="1015.6984">Sayuri</tspan></text>
  </g>
</svg>
